<?xml version="1.0" encoding="iso-8859-1"?>
<!-- Generator: Adobe Illustrator 19.0.0, SVG Export Plug-In . SVG Version: 6.00 Build 0)  -->
<svg version="1.1" id="Capa_1" xmlns="http://www.w3.org/2000/svg" xmlns:xlink="http://www.w3.org/1999/xlink" x="0px" y="0px"
	 viewBox="0 0 512 512" style="enable-background:new 0 0 512 512;" xml:space="preserve">
<path style="fill:#FEDB41;" d="M512,265.899V421c0,32.999-27.001,60-59.4,60h-437C6.599,481,0,474.399,0,466V76
	c0-8.401,6.599-15,15-15h394.701L512,265.899z"/>
<path style="fill:#FCBF29;" d="M512,265.899V421c0,32.999-27.001,60-60,60H234.1V61h175.601L512,265.899z"/>
<path style="fill:#FEDB41;" d="M346,136v270h-60v-90c-22.5,0-41.401,12.599-51.9,30.899c-4.799,8.701-8.1,18.6-8.1,29.101v30H76V136
	H346z"/>
<path style="fill:#FCBF29;" d="M346,136v270h-60v-90c-22.5,0-41.401,12.599-51.9,30.899V136H346z"/>
<path style="fill:#E5741A;" d="M512,91c0-33.091-26.909-60-60-60c-25.503,0-48.208,16.113-56.367,39.771
	C393.187,77.348,392,83.969,392,91v278.929c0,6.202,3.817,11.764,9.603,13.996s12.353,0.675,16.516-3.923
	C427.677,369.447,439.295,361,452,361c33.091,0,60,26.909,60,60V91z"/>
<path style="fill:#787780;" d="M346,121H76c-8.401,0-15,6.599-15,15v270c0,8.399,6.599,15,15,15h150c2.701,0,6-0.601,8.1-1.8
	c4.501-2.701,6.9-7.5,6.9-13.2v-30c0-19.501,12.599-36.301,30-42.301V406c0,8.399,6.599,15,15,15h60c8.401,0,15-6.601,15-15V136
	C361,127.599,354.401,121,346,121z M331,391h-30v-75c0-8.401-6.599-15-15-15c-20.4,0-38.4,8.099-51.9,21.299
	C220.299,336.099,211,355,211,376v15H91v-90h60v45c0,8.399,6.599,15,15,15s15-6.601,15-15v-60c0-8.401-6.599-15-15-15H91V151h90v60
	h-45c-8.401,0-15,6.599-15,15c0,8.399,6.599,15,15,15h120c8.401,0,15-6.601,15-15c0-8.401-6.599-15-15-15h-45v-60h120V391z"/>
<g>
	<path style="fill:#57555C;" d="M256,241h-21.9v-30H256c8.401,0,15,6.599,15,15C271,234.399,264.401,241,256,241z"/>
	<path style="fill:#57555C;" d="M361,136v270c0,8.399-6.599,15-15,15h-60c-8.401,0-15-6.601-15-15v-72.301
		c-17.401,6-30,22.8-30,42.301v30c0,5.7-2.399,10.499-6.9,13.2v-96.901C247.6,309.099,265.6,301,286,301c8.401,0,15,6.599,15,15v75
		h30V151h-96.9v-30H346C354.401,121,361,127.599,361,136z"/>
</g>
<g>
</g>
<g>
</g>
<g>
</g>
<g>
</g>
<g>
</g>
<g>
</g>
<g>
</g>
<g>
</g>
<g>
</g>
<g>
</g>
<g>
</g>
<g>
</g>
<g>
</g>
<g>
</g>
<g>
</g>
</svg>
