<svg xmlns="http://www.w3.org/2000/svg" width="512" height="512"><rect width="100%" height="100%" fill="none"/><g class="currentLayer"><path d="M467 301h-24.994c-2.637 0-5.215.688-7.5 2.007L188.5 444.906a14.997 14.997 0 0 0-7.5 12.993V467c0 8.046-6.394 14.509-14.352 14.868L166 512h301c24.814 0 45-20.186 45-45V346c0-24.814-20.186-45-45-45z" fill="#6d6d6d"/><path d="M203.5 471.893c-2.329 1.333-4.907 2.007-7.5 2.007s-5.186-.674-7.5-2.007c-4.644-2.681-7.5-8.632-7.5-13.993v-41.396c0-2.637.688-5.215 2.007-7.5l143.994-249.595a15.14 15.14 0 0 1 5.479-5.493l32.71-18.911c21.606-12.158 49.175-4.717 61.567 16.538L487.786 255.4c12.173 21.592 4.731 49.146-16.523 61.553 0 0-.029.015-.029.029L203.5 471.893zm260.204-167.89h.293-.293z" fill="#b6b6b6"/><path d="M196 431.503a14.71 14.71 0 0 1-3.882-.513A14.987 14.987 0 0 1 181 416.503v-361c0-2.651.703-5.259 2.051-7.559l6.299-10.796c5.889-10.283 15.571-17.695 27.173-20.786 11.66-3.12 23.745-1.465 34.131 4.57l104.033 60.971c10.254 5.889 17.871 15.923 20.903 27.524 3.047 11.631 1.392 23.657-4.644 33.853L208.993 424.003a15.019 15.019 0 0 1-12.993 7.5z" fill="#e5741a"/><path d="M185.565 181L211 151V45c0-24.814-20.186-45-45-45H45C20.186 0 0 20.186 0 45v106l30.326 30h155.239z" fill="#fea832"/><path fill="#fcbf29" d="M186.001 331L211 301V151H0v150l34.814 30z"/><path d="M211 467c0 24.814-20.186 45-45 45H45c-24.814 0-45-20.186-45-45V301h211v166z" fill="#fedb41"/><path d="M106 451c-24.814 0-45-20.186-45-45s20.186-45 45-45 45 20.186 45 45-20.186 45-45 45z" fill="#787780"/></g></svg>