<svg xmlns="http://www.w3.org/2000/svg" width="512" height="512"><rect width="100%" height="100%" fill="none"/><g class="currentLayer"><path d="M430.849 259.2l-21.699 20.698 21.699 39.302v60l-20.5 17.699 20.5 42.301v17.699c0 3.3-1.199 6.601-2.999 9l-29.8 40.401c-3.001 3.9-7.5 5.7-12.001 5.7s-9-1.8-12.001-5.7l-30-40.401c-1.8-2.399-2.999-5.7-2.999-9V403.2l17.401-25.801-17.401-34.199v-60l21.899-17.701-21.899-42.299v-60l29.399-24.6 15.601 9 27.599 16.199 17.201 35.402V259.2z" fill="#919191"/><path d="M430.849 259.2l-21.699 20.698 21.699 39.302v60l-20.5 17.699 20.5 42.301v17.699c0 3.3-1.199 6.601-2.999 9l-29.8 40.401c-3.001 3.9-7.5 5.7-12.001 5.7V147.599l27.599 16.199 17.201 35.402v60z" fill="#6d6d6d"/><path fill="#fe9922" d="M430.849 90v109.2l-44.8-18.001-45-17.999V90l22.5-20.7h47.999z"/><path fill="#e6731b" d="M430.849 90v109.2l-44.8-18.001V69.3h25.499z"/><path d="M495.549 25.499L430.849 90h-89.8l-64.501-64.501C267.248 16.199 273.849 0 287.349 0h197.399c13.5 0 20.101 16.199 10.801 25.499z" fill="#919191"/><path d="M430.849 379.2v60l-44.8-18.001-45-17.999v-60l45 17.999zm0-120v60l-44.8-18.001-45-17.999v-60l45 17.999z" fill="#fe9922"/><path d="M386.049 241.199l44.8 18.001v60l-44.8-18.001zm0 120l44.8 18.001v60l-44.8-18.001z" fill="#e6731b"/><path d="M495.549 25.499L430.849 90h-44.8V0h98.699c13.5 0 20.101 16.199 10.801 25.499z" fill="#6d6d6d"/><path fill="#fe9922" d="M190.849 313.5l-26.2 29.099 26.2 30.901v67.2l-36.101 18.6-23.699-3.001-26.4-3.3-33.6-52.199v-61.5l18.6-17.401-18.6-42.599V210l40.499-23.101h48.301l31 23.101z"/><path fill="#e6731b" d="M190.849 313.5l-26.2 29.099 26.2 30.901v67.2l-36.101 18.6-23.699-3.001v-269.4h28.8l31 23.101z"/><path d="M190.849 440.7v11.999c0 4.2-1.5 7.8-4.501 10.801l-44.8 44.301c-2.699 2.699-6.599 4.199-10.499 4.199s-7.8-1.5-10.499-4.199l-45-44.301c-3.001-3.001-4.501-6.601-4.501-10.801V400.8l60 20.099 59.8 19.801zm0-127.2v60l-119.8-34.2v-60z" fill="#919191"/><path d="M131.049 296.4l59.8 17.1v60l-59.8-17.1zm0 124.499l59.8 19.801v11.999c0 4.2-1.5 7.8-4.501 10.801l-44.8 44.301c-2.699 2.699-6.599 4.199-10.499 4.199v-91.101z" fill="#6d6d6d"/><path d="M249.849 192.299c1.199 9.3-5.7 17.701-15.2 17.701H27.048c-9.1 0-15.999-8.401-14.8-17.701 6-39.6 31.501-73.799 67.5-90.899 9.901-4.501 21.101 2.999 21.101 13.799V150h60.2v-34.801c0-10.8 11.4-18.3 21.301-13.799 35.998 17.1 61.499 51.299 67.499 90.899z" fill="#919191"/><path d="M249.849 192.299c1.199 9.3-5.7 17.701-15.2 17.701h-103.8l.2-60h30v-34.801c0-10.8 11.4-18.3 21.301-13.799 35.998 17.1 61.499 51.299 67.499 90.899z" fill="#6d6d6d"/></g></svg>