<svg xmlns="http://www.w3.org/2000/svg" viewBox="0 0 512.001 512.001"><path d="M95.218 183.748H15.004c-9.308 0-16.32-8.403-14.795-17.461L17.465 62.723C25.57 14.188 77.189-13.34 121.907 6.504l81.957 36.431c9.321 4.15 11.89 16.269 4.98 23.833L106.292 178.87a15.031 15.031 0 0 1-11.074 4.878z" fill="#787780"/><path d="M456.453 181.989h-39.668a15.01 15.01 0 0 1-14.238-10.283l-23.013-69.359c-2.843-8.592 2.524-17.688 11.294-19.424l54.727-10.942h.015C479.691 65.01 512 91.326 512 126.444c0 30.628-24.917 55.545-55.547 55.545z" fill="#57555c"/><path d="M256.002 31.99c-111.3 0-206.999 82.799-222.597 192.898-1.5 9 5.7 17.1 14.7 17.1h415.797c9 0 16.199-8.101 14.7-17.1-15.601-110.098-111.3-192.898-222.6-192.898z" fill="#fea832"/><path d="M478.599 224.888c1.5 9-5.7 17.1-14.7 17.1l-207.898.2V32.189c111.301-.199 207 82.601 222.598 192.699z" fill="#fe9923"/><path d="M486.7 336.188l-15.901-53.401c-1.8-6.301-7.798-10.8-14.399-10.8H33.404c-14.968 0-19.501 14.099-12.301 24l31.201 41.7-13.801 7.8c-9.6 5.7-9.901 19.499-.601 25.499l49.2 32.401-10.199 11.999c-7.202 8.401-2.701 21.601 8.099 24.3l57.001 13.5-5.099 14.7c-4.2 10.801 5.099 21.601 15.599 20.101l58.5-6.601v15.601c0 11.1 11.7 18.3 21.599 13.5l52.8-26.4 5.4 14.7c3.602 10.199 17.1 13.5 24.901 5.099l40.501-42.599 9.899 11.999c7.2 8.701 21 6.301 25.201-3.6l23.399-54 13.801 7.8c4.501 2.701 9.901 2.701 14.399.3 4.501-2.701 7.5-7.2 7.8-12.301l3.6-58.799 15.601 2.699c10.495 2.102 20.096-8.097 16.796-19.197z" fill="#d9d9d9"/><path d="M469.9 355.387l-15.601-2.699-3.6 58.799c-.3 5.101-3.3 9.6-7.8 12.301-4.499 2.401-9.899 2.401-14.399-.3l-13.801-7.8-23.399 54c-4.2 9.901-18.001 12.301-25.201 3.6l-9.899-11.999-40.501 42.599c-7.8 8.401-21.299 5.099-24.901-5.099l-5.4-14.7-29.399 14.7V271.99h200.398c6.601 0 12.599 4.499 14.399 10.8l15.901 53.401c3.303 11.097-6.298 21.296-16.797 19.196z" fill="#c8c6cd"/><path d="M372.101 271.988H139.903c-9.901 0-17.1 9.3-14.7 18.6 15.599 59.7 69.299 101.399 130.799 101.399s115.2-41.7 130.799-101.399c2.4-9.301-4.8-18.6-14.7-18.6z" fill="#aeadb3"/><path d="M386.8 290.587c-15.599 59.7-69.299 101.399-130.799 101.399V271.987H372.1c9.901.001 17.101 9.3 14.7 18.6z" fill="#8b8892"/><path d="M497 212.189H15.004c-8.401 0-15 6.399-15 14.8v59.999c0 8.399 6.599 15 15 15H497c8.401 0 15-6.601 15-15v-60c0-8.4-6.599-14.799-15-14.799z" fill="#fedb41"/><path d="M512 226.989v59.999c0 8.399-6.599 15-15 15H256.002v-89.799H497c8.401 0 15 6.399 15 14.8z" fill="#fcbf29"/><path d="M256.002 181.989c-41.4 0-74.999 33.6-74.999 74.999s33.6 74.999 74.999 74.999 74.999-33.6 74.999-74.999-33.599-74.999-74.999-74.999z" fill="#787780"/><path d="M331.001 256.989c0 41.4-33.6 74.999-74.999 74.999V181.989c41.4 0 74.999 33.599 74.999 75z" fill="#57555c"/><path d="M271.002 256.989c0 8.399-6.599 15-15 15s-15-6.601-15-15c0-8.401 6.599-15 15-15s15 6.599 15 15z" fill="#e1e4fb"/><path d="M271.002 256.989c0 8.399-6.599 15-15 15v-30c8.401 0 15 6.599 15 15z" fill="#c5c9f7"/></svg>