<svg xmlns="http://www.w3.org/2000/svg" viewBox="0 0 512 512"><path d="M497.029.499H377.263c-8.385 0-14.971 6.586-14.971 14.971v59.883c0 8.383 6.586 14.971 14.971 14.971h119.766c8.385 0 14.971-6.588 14.971-14.971V15.47C512 7.085 505.414.499 497.029.499z" fill="#fea832"/><g fill="#e5741a"><path d="M496.031 256.998V496.53H14.971V137.232h300.413v59.883h59.883v59.883z"/><path d="M496.031 256.998V496.53h-239.93V137.232h59.283v59.883h59.883v59.883z"/></g><path d="M496.031 242.027H390.238v-44.912c0-8.385-6.586-14.971-14.971-14.971h-44.912v-44.912c0-8.385-6.586-14.971-14.971-14.971H14.971C6.586 122.261 0 128.847 0 137.232V496.53c0 8.383 6.586 14.971 14.971 14.971h481.06c8.385 0 14.971-6.588 14.971-14.971V256.998c0-8.385-6.586-14.971-14.971-14.971zm-75.852 29.942v29.942h-89.825v-29.942h89.825zm-59.883 89.824h-89.825v-29.941h89.825v29.941zm59.883 29.942v29.942h-89.825v-29.942h89.825zm-270.471-29.942v-29.941h90.823v29.941h-90.823zm30.939 29.942v29.942H89.825v-29.942h90.822zm0-119.766v29.942H89.825v-29.942h90.822zm-30.939-29.942v-29.942h90.823v29.942h-90.823zm60.881 59.883v-29.942h89.825v29.942h-89.825zm149.707-89.824v29.942h-89.825v-29.942h89.825zm-149.707-59.883h89.825v29.942h-89.825v-29.942zm-120.764 0h90.823v29.942H89.825v-29.942zm-59.883 0h29.942v29.942H29.942v-29.942zm0 59.883h89.825v29.942H29.942v-29.942zm0 59.883h29.942v29.942H29.942v-29.942zm0 59.883h89.825v29.941H29.942v-29.941zm0 59.883h29.942v29.942H29.942v-29.942zm89.824 89.824H29.942v-29.941h89.825v29.941zm120.764 0h-90.823v-29.941h90.823v29.941zm-29.941-59.883v-29.942h89.825v29.942h-89.825zm149.707 59.883h-89.825v-29.941h89.825v29.941zm120.764 0h-90.823v-29.941h90.823v29.941zm0-59.883h-30.94v-29.942h30.94v29.942zm0-59.883h-90.823v-29.941h90.823v29.941zm0-59.883h-30.94v-29.942h30.94v29.942z" fill="#fea832"/><path d="M496.031 242.027H390.238v-44.912c0-8.385-6.586-14.971-14.971-14.971h-44.912v-44.912c0-8.385-6.586-14.971-14.971-14.971h-59.283v29.942h44.312v29.942h-44.312v89.825h44.312v29.942h-44.312v89.825h44.312v29.942h-44.312v89.825h239.93c8.385 0 14.971-6.588 14.971-14.971V256.998c0-8.385-6.586-14.971-14.971-14.971zm-75.852 29.942v29.942h-89.825v-29.942h89.825zm-149.707-29.942v-29.942h89.825v29.942h-89.825zm0 119.766v-29.941h89.825v29.941h-89.825zm149.707 29.942v29.942h-89.825v-29.942h89.825zm-59.883 89.824h-89.825v-29.941h89.825v29.941zm120.764 0h-90.823v-29.941h90.823v29.941zm0-59.883h-30.94v-29.942h30.94v29.942zm0-59.883h-90.823v-29.941h90.823v29.941zm0-59.883h-30.94v-29.942h30.94v29.942zM512 15.47v59.883c0 8.383-6.586 14.971-14.971 14.971h-59.883V.499h59.883C505.414.499 512 7.085 512 15.47z" fill="#fe9923"/></svg>