<svg xmlns="http://www.w3.org/2000/svg" viewBox="0 0 512 512"><path d="M480.399 301.6L460.3 325.9H58.6l-26.999-24.3C38.5 196.9 118.9 109 223.9 94l32.1-.3h30c.601 0 1.5 0 2.1.3 105 15 185.4 102.9 192.299 207.6z" fill="#fea832"/><path d="M480.399 301.6L460.3 325.9H256V93.7h30c.601 0 1.5 0 2.1.3 105 15 185.4 102.9 192.299 207.6z" fill="#fe9923"/><path d="M286 90.4v204.3h-60V90.4c0-16.501 13.5-30 30-30s30 13.499 30 30z" fill="#fedb41"/><path d="M286 294.7h-30V60.4c16.5 0 30 13.499 30 30v204.3z" fill="#fcbf29"/><circle cx="136" cy="256.6" r="15" fill="#fedb41"/><circle cx="376" cy="256.6" r="15" fill="#fcbf29"/><path d="M480.399 301.6H31.601c-.301 4.799-.601 9.9-.601 15v75c0 8.401 6.599 15 15 15h420c8.401 0 15-6.599 15-15v-75c0-5.1-.3-10.201-.601-15z" fill="#fedb41"/><path d="M481 316.6v75c0 8.401-6.599 15-15 15H256v-105h224.399c.301 4.799.601 9.9.601 15z" fill="#fcbf29"/><path d="M512 421.6c0 16.5-14.5 30-31 30H31c-16.5 0-31-13.5-31-30s14.5-30 31-30h450c16.5 0 31 13.5 31 30z" fill="#fea832"/><path d="M512 421.6c0 16.5-14.5 30-31 30H256v-60h225c16.5 0 31 13.5 31 30z" fill="#fe9923"/><circle cx="256" cy="346.4" r="75" fill="#787780"/><path d="M331 346.4c0-41.421-33.579-75-75-75v150c41.421 0 75-33.578 75-75z" fill="#57555c"/><path d="M256 391.4c-24.813 0-45-20.187-45-45s20.187-45 45-45 45 20.187 45 45-20.187 45-45 45z" fill="#d9d9d9"/><path d="M301 346.4c0-24.813-20.187-45-45-45v90c24.813 0 45-20.187 45-45z" fill="#c8c6cd"/></svg>