<svg xmlns="http://www.w3.org/2000/svg" xmlns:xlink="http://www.w3.org/1999/xlink" version="1.1" enable-background="new 0 0 400 400" xml:space="preserve" width="400" height="400"><rect id="backgroundrect" width="100%" height="100%" x="0" y="0" fill="none" stroke="none"/>

<g class="currentLayer" style=""><title>Layer 1</title>
	
	<g id="svg_5" class="" transform="rotate(90 200.62567138671875,199.41893005371097) ">
		<g id="svg_6">
			<rect x="40.47567367553711" y="191.11892700195312" fill="#E535AB" width="320.29998779296875" height="16.600000381469727" id="svg_7"/>
		</g>
	</g><g class="" transform="rotate(150.11436462402344 199.27432250976562,200.77027893066403) " id="svg_35">
		<g id="svg_37">
			<rect x="39.124324798583984" y="192.47027587890625" fill="#E535AB" width="320.29998779296875" height="16.600000381469727" id="svg_7"/>
		</g>
	</g><g class="" transform="rotate(-149.75677490234375 199.94998168945312,199.41893005371097) " id="svg_39">
		<g id="svg_41">
			<rect x="39.79999923706055" y="191.11892700195312" fill="#E535AB" width="320.29998779296875" height="16.600000381469727" id="svg_7"/>
		</g>
	</g>
	<g id="svg_8" class="">
		<g id="svg_9">
			
				<rect x="37.900001525878906" y="312.20001220703125" transform="matrix(-0.866,-0.5,0.5,-0.866,83.0693,663.3409) " fill="#E535AB" width="185" height="16.600000381469727" id="svg_10"/>
		</g>
	</g>
	<g id="svg_11" class="">
		<g id="svg_12">
			
				<rect x="177.10000610351562" y="71.0999984741211" transform="matrix(-0.866,-0.5,0.5,-0.866,463.3409,283.0693) " fill="#E535AB" width="185" height="16.600000381469727" id="svg_13"/>
		</g>
	</g>
	<g id="svg_14" class="">
		<g id="svg_15">
			
				<rect x="122.0999984741211" y="-13" transform="matrix(-0.5,-0.866,0.866,-0.5,126.7903,232.1221) " fill="#E535AB" width="16.600000381469727" height="185" id="svg_16"/>
		</g>
	</g>
	
	<g id="svg_20" class="">
		<g id="svg_21">
			<rect x="52.5" y="107.5" fill="#E535AB" width="16.600000381469727" height="185" id="svg_22"/>
		</g>
	</g>
	<g id="svg_23" class="">
		<g id="svg_24">
			<rect x="330.8999938964844" y="107.5" fill="#E535AB" width="16.600000381469727" height="185" id="svg_25"/>
		</g>
	</g>
	<g id="svg_26" class="">
		<g id="svg_27">
			
				<rect x="262.3999938964844" y="240.10000610351562" transform="matrix(-0.5,-0.866,0.866,-0.5,126.7953,714.2875) " fill="#E535AB" width="14.5" height="160.89999389648438" id="svg_28"/>
		</g>
	</g>
	<path fill="#E535AB" d="M369.5,297.9c-9.6,16.7-31,22.4-47.7,12.8c-16.7-9.6-22.4-31-12.8-47.7c9.6-16.7,31-22.4,47.7-12.8   C373.5,259.9,379.2,281.2,369.5,297.9" id="svg_29" class=""/>
	<path fill="#E535AB" d="M90.9,137c-9.6,16.7-31,22.4-47.7,12.8c-16.7-9.6-22.4-31-12.8-47.7c9.6-16.7,31-22.4,47.7-12.8   C94.8,99,100.5,120.3,90.9,137" id="svg_30" class=""/>
	<path fill="#E535AB" d="M30.5,297.9c-9.6-16.7-3.9-38,12.8-47.7c16.7-9.6,38-3.9,47.7,12.8c9.6,16.7,3.9,38-12.8,47.7   C61.4,320.3,40.1,314.6,30.5,297.9" id="svg_31" class=""/>
	<path fill="#E535AB" d="M309.1,137c-9.6-16.7-3.9-38,12.8-47.7c16.7-9.6,38-3.9,47.7,12.8c9.6,16.7,3.9,38-12.8,47.7   C340.1,159.4,318.7,153.7,309.1,137" id="svg_32" class=""/>
	<path fill="#E535AB" d="M200,395.8c-19.3,0-34.9-15.6-34.9-34.9c0-19.3,15.6-34.9,34.9-34.9c19.3,0,34.9,15.6,34.9,34.9   C234.9,380.1,219.3,395.8,200,395.8" id="svg_33" class=""/>
	<path fill="#E535AB" d="M200,74c-19.3,0-34.9-15.6-34.9-34.9c0-19.3,15.6-34.9,34.9-34.9c19.3,0,34.9,15.6,34.9,34.9   C234.9,58.4,219.3,74,200,74" id="svg_34" class=""/>
</g></svg>