<?xml version="1.0" encoding="iso-8859-1"?>
<!-- Generator: Adobe Illustrator 19.0.0, SVG Export Plug-In . SVG Version: 6.00 Build 0)  -->
<svg version="1.1" id="Capa_1" xmlns="http://www.w3.org/2000/svg" xmlns:xlink="http://www.w3.org/1999/xlink" x="0px" y="0px"
	 viewBox="0 0 512.001 512.001" style="enable-background:new 0 0 512.001 512.001;" xml:space="preserve">
<path style="fill:#787780;" d="M95.218,183.748H15.004c-9.308,0-16.32-8.403-14.795-17.461L17.465,62.723
	C25.57,14.188,77.189-13.34,121.907,6.504l0,0l81.957,36.431c9.321,4.15,11.89,16.269,4.98,23.833L106.292,178.87
	C103.45,181.975,99.422,183.748,95.218,183.748z"/>
<path style="fill:#57555C;" d="M456.453,181.989h-39.668c-6.46,0-12.202-4.146-14.238-10.283l-23.013-69.359
	c-2.843-8.592,2.524-17.688,11.294-19.424l54.727-10.942c0,0,0,0,0.015,0c34.121-6.971,66.43,19.345,66.43,54.463
	C512,157.072,487.083,181.989,456.453,181.989z"/>
<path style="fill:#FEA832;" d="M256.002,31.99c-111.3,0-206.999,82.799-222.597,192.898c-1.5,9,5.7,17.1,14.7,17.1h415.797
	c9,0,16.199-8.101,14.7-17.1C463.001,114.79,367.302,31.99,256.002,31.99z"/>
<path style="fill:#FE9923;" d="M478.599,224.888c1.5,9-5.7,17.1-14.7,17.1l-207.898,0.2V32.189
	C367.302,31.99,463.001,114.79,478.599,224.888z"/>
<path style="fill:#D9D9D9;" d="M486.7,336.188l-15.901-53.401c-1.8-6.301-7.798-10.8-14.399-10.8H33.404
	c-14.968,0-19.501,14.099-12.301,24l31.201,41.7l-13.801,7.8c-9.6,5.7-9.901,19.499-0.601,25.499l49.2,32.401l-10.199,11.999
	c-7.202,8.401-2.701,21.601,8.099,24.3l57.001,13.5l-5.099,14.7c-4.2,10.801,5.099,21.601,15.599,20.101l58.5-6.601v15.601
	c0,11.1,11.7,18.3,21.599,13.5l52.8-26.4l5.4,14.7c3.602,10.199,17.1,13.5,24.901,5.099l40.501-42.599l9.899,11.999
	c7.2,8.701,21,6.301,25.201-3.6l23.399-54l13.801,7.8c4.501,2.701,9.901,2.701,14.399,0.3c4.501-2.701,7.5-7.2,7.8-12.301
	l3.6-58.799l15.601,2.699C480.399,357.487,490,347.288,486.7,336.188z"/>
<path style="fill:#C8C6CD;" d="M469.9,355.387l-15.601-2.699l-3.6,58.799c-0.3,5.101-3.3,9.6-7.8,12.301
	c-4.499,2.401-9.899,2.401-14.399-0.3l-13.801-7.8l-23.399,54c-4.2,9.901-18.001,12.301-25.201,3.6l-9.899-11.999l-40.501,42.599
	c-7.8,8.401-21.299,5.099-24.901-5.099l-5.4-14.7l-29.399,14.7V271.99h200.398c6.601,0,12.599,4.499,14.399,10.8l15.901,53.401
	C490,347.288,480.399,357.487,469.9,355.387z"/>
<path style="fill:#AEADB3;" d="M372.101,271.988H139.903c-9.901,0-17.1,9.3-14.7,18.6c15.599,59.7,69.299,101.399,130.799,101.399
	s115.2-41.7,130.799-101.399C389.201,281.287,382.001,271.988,372.101,271.988z"/>
<path style="fill:#8B8892;" d="M386.8,290.587c-15.599,59.7-69.299,101.399-130.799,101.399V271.987H372.1
	C382.001,271.988,389.201,281.287,386.8,290.587z"/>
<path style="fill:#FEDB41;" d="M497,212.189H15.004c-8.401,0-15,6.399-15,14.8v59.999c0,8.399,6.599,15,15,15H497
	c8.401,0,15-6.601,15-15v-60C512,218.588,505.401,212.189,497,212.189z"/>
<path style="fill:#FCBF29;" d="M512,226.989v59.999c0,8.399-6.599,15-15,15H256.002v-89.799H497
	C505.401,212.189,512,218.588,512,226.989z"/>
<path style="fill:#787780;" d="M256.002,181.989c-41.4,0-74.999,33.6-74.999,74.999s33.6,74.999,74.999,74.999
	s74.999-33.6,74.999-74.999S297.402,181.989,256.002,181.989z"/>
<path style="fill:#57555C;" d="M331.001,256.989c0,41.4-33.6,74.999-74.999,74.999V181.989
	C297.402,181.989,331.001,215.588,331.001,256.989z"/>
<path style="fill:#E1E4FB;" d="M271.002,256.989c0,8.399-6.599,15-15,15s-15-6.601-15-15c0-8.401,6.599-15,15-15
	S271.002,248.588,271.002,256.989z"/>
<path style="fill:#C5C9F7;" d="M271.002,256.989c0,8.399-6.599,15-15,15v-30C264.403,241.989,271.002,248.588,271.002,256.989z"/>
<g>
</g>
<g>
</g>
<g>
</g>
<g>
</g>
<g>
</g>
<g>
</g>
<g>
</g>
<g>
</g>
<g>
</g>
<g>
</g>
<g>
</g>
<g>
</g>
<g>
</g>
<g>
</g>
<g>
</g>
</svg>
