<?xml version="1.0" encoding="iso-8859-1"?>
<!-- Generator: Adobe Illustrator 19.0.0, SVG Export Plug-In . SVG Version: 6.00 Build 0)  -->
<svg version="1.1" id="Capa_1" xmlns="http://www.w3.org/2000/svg" xmlns:xlink="http://www.w3.org/1999/xlink" x="0px" y="0px"
	 viewBox="0 0 512 512" style="enable-background:new 0 0 512 512;" xml:space="preserve">
<path style="fill:#FEA832;" d="M497.029,0.499H377.263c-8.385,0-14.971,6.586-14.971,14.971v59.883
	c0,8.383,6.586,14.971,14.971,14.971h119.766c8.385,0,14.971-6.588,14.971-14.971V15.47C512,7.085,505.414,0.499,497.029,0.499z"/>
<g>
	<polygon style="fill:#E5741A;" points="496.031,256.998 496.031,496.53 14.971,496.53 14.971,137.232 315.384,137.232 
		315.384,197.115 375.267,197.115 375.267,256.998 	"/>
	<polygon style="fill:#E5741A;" points="496.031,256.998 496.031,496.53 256.101,496.53 256.101,137.232 315.384,137.232 
		315.384,197.115 375.267,197.115 375.267,256.998 	"/>
</g>
<path style="fill:#FEA832;" d="M496.031,242.027c-58.984,0-47.107,0-105.793,0v-44.912c0-8.385-6.586-14.971-14.971-14.971h-44.912
	v-44.912c0-8.385-6.586-14.971-14.971-14.971H14.971C6.586,122.261,0,128.847,0,137.232C0,445.03,0,338.737,0,496.53
	c0,8.383,6.586,14.971,14.971,14.971h481.06c8.385,0,14.971-6.588,14.971-14.971V256.998
	C511.002,248.613,504.416,242.027,496.031,242.027z M420.179,271.969v29.942h-89.825v-29.942H420.179z M360.296,361.793h-89.825
	v-29.941h89.825V361.793z M420.179,391.735v29.942h-89.825v-29.942H420.179z M149.708,361.793v-29.941h90.823v29.941H149.708z
	 M180.647,391.735v29.942H89.825v-29.942H180.647z M180.647,271.969v29.942H89.825v-29.942H180.647z M149.708,242.027v-29.942
	h90.823v29.942H149.708z M210.589,301.91v-29.942h89.825v29.942H210.589z M360.296,212.086v29.942h-89.825v-29.942H360.296z
	 M210.589,152.203h89.825v29.942h-89.825V152.203z M89.825,152.203h90.823v29.942H89.825V152.203z M29.942,152.203h29.942v29.942
	H29.942V152.203z M29.942,212.086h89.825v29.942H29.942V212.086z M29.942,271.969h29.942v29.942H29.942V271.969z M29.942,331.852
	h89.825v29.941H29.942V331.852z M29.942,391.735h29.942v29.942H29.942V391.735z M119.766,481.559H29.942v-29.941h89.825V481.559z
	 M240.53,481.559h-90.823v-29.941h90.823V481.559z M210.589,421.676v-29.942h89.825v29.942H210.589z M360.296,481.559h-89.825
	v-29.941h89.825V481.559z M481.06,481.559h-90.823v-29.941h90.823V481.559z M481.06,421.676h-30.94v-29.942h30.94V421.676z
	 M481.06,361.793h-90.823v-29.941h90.823V361.793z M481.06,301.91h-30.94v-29.942h30.94V301.91z"/>
<g>
	<path style="fill:#FE9923;" d="M496.031,242.027c-58.984,0-47.107,0-105.793,0v-44.912c0-8.385-6.586-14.971-14.971-14.971h-44.912
		v-44.912c0-8.385-6.586-14.971-14.971-14.971h-59.283v29.942h44.312v29.942h-44.312v89.825h44.312v29.942h-44.312v89.825h44.312
		v29.942h-44.312v89.825h239.93c8.385,0,14.971-6.588,14.971-14.971V256.998C511.002,248.613,504.416,242.027,496.031,242.027z
		 M420.179,271.969v29.942h-89.825v-29.942H420.179z M270.472,242.027v-29.942h89.825v29.942H270.472z M270.472,361.793v-29.941
		h89.825v29.941H270.472z M420.179,391.735v29.942h-89.825v-29.942H420.179z M360.296,481.559h-89.825v-29.941h89.825V481.559z
		 M481.06,481.559h-90.823v-29.941h90.823V481.559z M481.06,421.676h-30.94v-29.942h30.94V421.676z M481.06,361.793h-90.823v-29.941
		h90.823V361.793z M481.06,301.91h-30.94v-29.942h30.94V301.91z"/>
	<path style="fill:#FE9923;" d="M512,15.47v59.883c0,8.383-6.586,14.971-14.971,14.971h-59.883V0.499h59.883
		C505.414,0.499,512,7.085,512,15.47z"/>
</g>
<g>
</g>
<g>
</g>
<g>
</g>
<g>
</g>
<g>
</g>
<g>
</g>
<g>
</g>
<g>
</g>
<g>
</g>
<g>
</g>
<g>
</g>
<g>
</g>
<g>
</g>
<g>
</g>
<g>
</g>
</svg>
