<?xml version="1.0" encoding="iso-8859-1"?>
<!-- Generator: Adobe Illustrator 19.0.0, SVG Export Plug-In . SVG Version: 6.00 Build 0)  -->
<svg version="1.1" id="Capa_1" xmlns="http://www.w3.org/2000/svg" xmlns:xlink="http://www.w3.org/1999/xlink" x="0px" y="0px"
	 viewBox="0 0 512 512" style="enable-background:new 0 0 512 512;" xml:space="preserve">
<path style="fill:#FEA832;" d="M480.399,301.6L460.3,325.9H58.6l-26.999-24.3C38.5,196.9,118.9,109,223.9,94l32.1-0.3h30
	c0.601,0,1.5,0,2.1,0.3C393.1,109,473.5,196.9,480.399,301.6z"/>
<path style="fill:#FE9923;" d="M480.399,301.6L460.3,325.9H256V93.7h30c0.601,0,1.5,0,2.1,0.3C393.1,109,473.5,196.9,480.399,301.6z
	"/>
<path style="fill:#FEDB41;" d="M286,90.4v204.3h-60V90.4c0-16.501,13.5-30,30-30S286,73.899,286,90.4z"/>
<path style="fill:#FCBF29;" d="M286,294.7h-30V60.4c16.5,0,30,13.499,30,30V294.7z"/>
<circle style="fill:#FEDB41;" cx="136" cy="256.6" r="15"/>
<circle style="fill:#FCBF29;" cx="376" cy="256.6" r="15"/>
<path style="fill:#FEDB41;" d="M480.399,301.6H31.601C31.3,306.399,31,311.5,31,316.6v75c0,8.401,6.599,15,15,15h420
	c8.401,0,15-6.599,15-15v-75C481,311.5,480.7,306.399,480.399,301.6z"/>
<path style="fill:#FCBF29;" d="M481,316.6v75c0,8.401-6.599,15-15,15H256v-105h224.399C480.7,306.399,481,311.5,481,316.6z"/>
<path style="fill:#FEA832;" d="M512,421.6c0,16.5-14.5,30-31,30H31c-16.5,0-31-13.5-31-30s14.5-30,31-30h450
	C497.5,391.6,512,405.1,512,421.6z"/>
<path style="fill:#FE9923;" d="M512,421.6c0,16.5-14.5,30-31,30H256v-60h225C497.5,391.6,512,405.1,512,421.6z"/>
<circle style="fill:#787780;" cx="256" cy="346.4" r="75"/>
<path style="fill:#57555C;" d="M331,346.4c0-41.421-33.579-75-75-75v150C297.421,421.4,331,387.822,331,346.4z"/>
<path style="fill:#D9D9D9;" d="M256,391.4c-24.813,0-45-20.187-45-45s20.187-45,45-45s45,20.187,45,45S280.813,391.4,256,391.4z"/>
<path style="fill:#C8C6CD;" d="M301,346.4c0-24.813-20.187-45-45-45v90C280.813,391.4,301,371.213,301,346.4z"/>
<g>
</g>
<g>
</g>
<g>
</g>
<g>
</g>
<g>
</g>
<g>
</g>
<g>
</g>
<g>
</g>
<g>
</g>
<g>
</g>
<g>
</g>
<g>
</g>
<g>
</g>
<g>
</g>
<g>
</g>
</svg>
