<?xml version="1.0" encoding="iso-8859-1"?>
<!-- Generator: Adobe Illustrator 19.0.0, SVG Export Plug-In . SVG Version: 6.00 Build 0)  -->
<svg version="1.1" id="Capa_1" xmlns="http://www.w3.org/2000/svg" xmlns:xlink="http://www.w3.org/1999/xlink" x="0px" y="0px"
	 viewBox="0 0 512 512" style="enable-background:new 0 0 512 512;" xml:space="preserve">
<path style="fill:#D9D9D9;" d="M430.849,259.2l-21.699,20.698l21.699,39.302v60l-20.5,17.699l20.5,42.301v17.699
	c0,3.3-1.199,6.601-2.999,9l-29.8,40.401c-3.001,3.9-7.5,5.7-12.001,5.7s-9-1.8-12.001-5.7l-30-40.401c-1.8-2.399-2.999-5.7-2.999-9
	V403.2l17.401-25.801L341.049,343.2v-60l21.899-17.701L341.049,223.2v-60l29.399-24.6l15.601,9l27.599,16.199l17.201,35.402V259.2z"
	/>
<path style="fill:#C8C6CD;" d="M430.849,259.2l-21.699,20.698l21.699,39.302v60l-20.5,17.699l20.5,42.301v17.699
	c0,3.3-1.199,6.601-2.999,9l-29.8,40.401c-3.001,3.9-7.5,5.7-12.001,5.7V147.599l27.599,16.199l17.201,35.402V259.2z"/>
<polygon style="fill:#AEADB3;" points="430.849,90 430.849,199.2 386.049,181.199 341.049,163.2 341.049,90 363.549,69.3 
	411.548,69.3 "/>
<polygon style="fill:#8B8892;" points="430.849,90 430.849,199.2 386.049,181.199 386.049,69.3 411.548,69.3 "/>
<path style="fill:#D9D9D9;" d="M495.549,25.499L430.849,90h-89.8l-64.501-64.501C267.248,16.199,273.849,0,287.349,0h197.399
	C498.248,0,504.849,16.199,495.549,25.499z"/>
<g>
	<polygon style="fill:#AEADB3;" points="430.849,379.2 430.849,439.2 386.049,421.199 341.049,403.2 341.049,343.2 386.049,361.199 
			"/>
	<polygon style="fill:#AEADB3;" points="430.849,259.2 430.849,319.2 386.049,301.199 341.049,283.2 341.049,223.2 386.049,241.199 
			"/>
</g>
<g>
	<polygon style="fill:#8B8892;" points="386.049,241.199 430.849,259.2 430.849,319.2 386.049,301.199 	"/>
	<polygon style="fill:#8B8892;" points="386.049,361.199 430.849,379.2 430.849,439.2 386.049,421.199 	"/>
</g>
<path style="fill:#C8C6CD;" d="M495.549,25.499L430.849,90h-44.8V0h98.699C498.248,0,504.849,16.199,495.549,25.499z"/>
<polygon style="fill:#AEADB3;" points="190.849,313.5 164.649,342.599 190.849,373.5 190.849,440.7 154.748,459.3 131.049,456.299 
	104.649,452.999 71.049,400.8 71.049,339.3 89.649,321.899 71.049,279.3 71.049,210 111.548,186.899 159.849,186.899 190.849,210 
	"/>
<polygon style="fill:#8B8892;" points="190.849,313.5 164.649,342.599 190.849,373.5 190.849,440.7 154.748,459.3 131.049,456.299 
	131.049,186.899 159.849,186.899 190.849,210 "/>
<g>
	<path style="fill:#D9D9D9;" d="M190.849,440.7v11.999c0,4.2-1.5,7.8-4.501,10.801l-44.8,44.301
		c-2.699,2.699-6.599,4.199-10.499,4.199s-7.8-1.5-10.499-4.199l-45-44.301c-3.001-3.001-4.501-6.601-4.501-10.801V400.8l60,20.099
		L190.849,440.7z"/>
	<polygon style="fill:#D9D9D9;" points="190.849,313.5 190.849,373.5 71.049,339.3 71.049,279.3 	"/>
</g>
<g>
	<polygon style="fill:#C8C6CD;" points="131.049,296.4 190.849,313.5 190.849,373.5 131.049,356.4 	"/>
	<path style="fill:#C8C6CD;" d="M131.049,420.899l59.8,19.801v11.999c0,4.2-1.5,7.8-4.501,10.801l-44.8,44.301
		c-2.699,2.699-6.599,4.199-10.499,4.199V420.899z"/>
</g>
<path style="fill:#D9D9D9;" d="M249.849,192.299c1.199,9.3-5.7,17.701-15.2,17.701H27.048c-9.1,0-15.999-8.401-14.8-17.701
	c6-39.6,31.501-73.799,67.5-90.899c9.901-4.501,21.101,2.999,21.101,13.799V150h60.2v-34.801c0-10.8,11.4-18.3,21.301-13.799
	C218.348,118.5,243.849,152.699,249.849,192.299z"/>
<path style="fill:#C8C6CD;" d="M249.849,192.299c1.199,9.3-5.7,17.701-15.2,17.701h-103.8l0.2-60h30v-34.801
	c0-10.8,11.4-18.3,21.301-13.799C218.348,118.5,243.849,152.699,249.849,192.299z"/>
<g>
</g>
<g>
</g>
<g>
</g>
<g>
</g>
<g>
</g>
<g>
</g>
<g>
</g>
<g>
</g>
<g>
</g>
<g>
</g>
<g>
</g>
<g>
</g>
<g>
</g>
<g>
</g>
<g>
</g>
</svg>
